<?xml version="1.0" encoding="UTF-8" standalone="no"?>
<!-- Created with Inkscape (http://www.inkscape.org/) -->

<svg
   width="17.716mm"
   height="19.707001mm"
   viewBox="0 0 37.963154 42.229619"
   version="1.1"
   id="svg1"
   inkscape:version="1.4.2 (7335b4f457, 2025-06-11)"
   sodipodi:docname="logo.svg"
   xml:space="preserve"
   inkscape:export-filename="logo.png"
   inkscape:export-xdpi="734.07092"
   inkscape:export-ydpi="734.07092"
   xmlns:inkscape="http://www.inkscape.org/namespaces/inkscape"
   xmlns:sodipodi="http://sodipodi.sourceforge.net/DTD/sodipodi-0.dtd"
   xmlns:xlink="http://www.w3.org/1999/xlink"
   xmlns="http://www.w3.org/2000/svg"
   xmlns:svg="http://www.w3.org/2000/svg"><sodipodi:namedview
     id="namedview1"
     pagecolor="#505050"
     bordercolor="#ffffff"
     borderopacity="1"
     inkscape:showpageshadow="0"
     inkscape:pageopacity="0"
     inkscape:pagecheckerboard="1"
     inkscape:deskcolor="#505050"
     inkscape:document-units="mm"
     inkscape:zoom="7.6368504"
     inkscape:cx="39.61057"
     inkscape:cy="62.787664"
     inkscape:window-width="3774"
     inkscape:window-height="2075"
     inkscape:window-x="66"
     inkscape:window-y="46"
     inkscape:window-maximized="1"
     inkscape:current-layer="g1"
     showgrid="false" /><defs
     id="defs1"><inkscape:path-effect
       effect="offset"
       id="path-effect14"
       is_visible="true"
       lpeversion="1.3"
       linejoin_type="bevel"
       unit="mm"
       offset="0.65"
       miter_limit="4"
       attempt_force_join="false"
       update_on_knot_move="true" /><linearGradient
       inkscape:collect="always"
       xlink:href="#a"
       id="linearGradient503"
       gradientUnits="userSpaceOnUse"
       gradientTransform="matrix(0.15514043,0.00118797,-6.1719265e-4,0.08060071,59.679511,-84.417508)"
       x1="352.15787"
       y1="1902.979"
       x2="562.99939"
       y2="2219.3118" /><linearGradient
       id="a"><stop
         offset="0"
         stop-color="#4ed8ff"
         id="stop869" /><stop
         offset="1"
         stop-color="#ff14b3"
         id="stop871" /></linearGradient></defs><g
     inkscape:label="Layer 1"
     inkscape:groupmode="layer"
     id="layer1"
     transform="translate(-110.28523,-61.796263)"><g
       id="g1"><path
         style="fill:#ffffff;stroke-width:0.0735"
         d="m 129.82738,100.50839 c 0.16568,-0.0848 3.50065,-2.033846 13.46043,-7.866703 1.2326,-0.721858 1.38946,-0.828757 1.54506,-1.052961 0.25688,-0.370117 0.24282,0.101444 0.2593,-8.69347 l 0.0152,-8.10339 -0.11102,-0.243072 c -0.22445,-0.491384 -0.35893,-0.585758 -3.20734,-2.250908 -0.74956,-0.438185 -2.10682,-1.233241 -3.01614,-1.766785 -9.39657,-5.513485 -9.08628,-5.341062 -9.55645,-5.310353 -0.39795,0.02599 -0.1182,-0.122569 -3.56274,1.89189 -1.58711,0.928187 -4.38553,2.563026 -6.2187,3.632972 -1.83318,1.069955 -3.79609,2.21582 -4.36204,2.546364 -1.10806,0.647167 -1.38937,0.870732 -1.54253,1.225892 l -0.0933,0.216288 -0.007,8.134267 c -0.008,9.14498 -0.0359,8.398632 0.3324,8.808711 0.12048,0.134159 0.37587,0.319901 0.69551,0.505863 0.27782,0.161619 1.06814,0.623956 1.75627,1.027413 9.67576,5.673002 12.46814,7.292592 12.71234,7.373182 0.17446,0.0576 0.7321,0.011 0.90056,-0.0752 z"
         id="path507" /><g
         id="g3"
         transform="translate(-0.2498217,0.6661912)"><g
           id="g2" /></g><path
         style="font-variation-settings:normal;baseline-shift:baseline;display:inline;overflow:visible;vector-effect:none;fill:url(#linearGradient503);fill-opacity:1;stroke:none;stroke-width:0.40255;stroke-linecap:butt;stroke-linejoin:miter;stroke-miterlimit:4;stroke-dasharray:none;stroke-dashoffset:0;stroke-opacity:1;-inkscape-stroke:none;paint-order:markers fill stroke;enable-background:accumulate;stop-color:#000000"
         d="m 129.26625,62.86731 c -0.71044,1.1e-5 -1.42066,0.183282 -2.05579,0.549994 l -13.79801,7.966458 c -1.27025,0.7334 -2.05589,2.094602 -2.05587,3.561363 l 2.2e-4,15.932551 c 3e-5,1.466762 0.78586,2.827676 2.05613,3.561036 l 13.79792,7.966098 c 1.27027,0.73336 2.84204,0.73339 4.11228,-1e-5 l 13.79771,-7.966465 c 1.27024,-0.733401 2.05621,-2.094599 2.05619,-3.561361 l -2.2e-4,-15.932551 c -3e-5,-1.466762 -0.78586,-2.827677 -2.05613,-3.561037 l -13.79825,-7.966095 c -0.63513,-0.36668 -1.34573,-0.549992 -2.05618,-0.549981 z m 1.5e-4,2.901126 c 0.20823,-1.7e-5 0.41672,0.05417 0.60481,0.162766 l 13.79793,7.966096 c 0.37616,0.217181 0.60465,0.612905 0.60465,1.047267 l 5.2e-4,15.932556 c 3e-5,0.434362 -0.22845,0.829959 -0.60461,1.047145 l -13.79803,7.966771 c -0.37618,0.217183 -0.8331,0.217053 -1.20927,-1.31e-4 l -13.79825,-7.966094 c -0.37618,-0.217181 -0.60463,-0.612908 -0.60463,-1.04727 l -2.2e-4,-15.932553 c -3e-5,-0.434362 0.22845,-0.829956 0.60461,-1.047145 l 13.79803,-7.966771 c 0.18804,-0.108591 0.39619,-0.162635 0.60446,-0.162637 z"
         id="path491" /><g
         id="g55"
         transform="translate(379.25277,237.33981)" /><path
         style="fill:#4d4d4d;stroke-width:0.999997"
         d="m 120.78694,90.943904 c -0.45299,-0.09328 -0.79404,-0.422443 -0.89813,-0.866853 -0.0621,-0.26508 -0.0763,-13.953019 -0.0148,-14.285543 0.091,-0.492226 0.41156,-0.824672 0.88082,-0.913448 0.29206,-0.05525 10.78459,-0.03219 10.94812,0.02407 0.63278,0.217685 0.76542,0.561655 0.76542,1.984801 v 1.000462 l -0.29725,0.07246 c -0.51586,0.125741 -1.09108,0.373025 -1.53774,0.661066 l -0.21213,0.136798 -0.19868,-0.281488 c -2.19097,-3.104235 -6.71525,-2.835562 -8.38363,0.49786 -1.00594,2.009853 -0.41679,4.554218 1.38799,5.994355 l 0.1737,0.138609 -0.24672,0.179248 c -1.20959,0.878785 -1.53259,1.219731 -1.64021,1.731391 -0.284,1.350272 1.16088,2.501333 2.37043,1.888405 0.36477,-0.184843 0.53472,-0.388294 1.6257,-1.946225 l 0.73137,-1.044418 0.30973,-0.02175 c 0.77593,-0.05448 1.61755,-0.342932 2.26247,-0.775413 l 0.2174,-0.145789 0.0521,0.101912 c 0.56284,1.100421 1.93935,2.12349 3.18749,2.369046 l 0.19796,0.03895 v 1.226304 c 0,1.693212 -0.0716,1.905324 -0.73912,2.190342 -0.15532,0.06631 -10.62955,0.109256 -10.94229,0.04486 z m 17.99613,-1.323393 c -0.053,-0.01853 -0.14485,-0.06985 -0.20406,-0.114034 -0.0817,-0.06096 -1.98866,-2.182614 -2.75837,-3.068928 l -0.10232,-0.117834 -0.22667,0.124593 c -4.29848,2.362779 -8.65328,-3.174125 -5.28242,-6.71632 3.68598,-3.873346 9.83783,1.322125 6.59037,5.565821 l -0.0899,0.117491 1.22951,1.184015 c 2.02565,1.950702 1.92194,1.831883 1.94623,2.229731 0.0357,0.584343 -0.5328,0.994551 -1.10236,0.795465 z m -4.6792,-3.880733 c 1.65687,-0.408997 2.73353,-2.187831 2.30537,-3.808918 -0.74639,-2.826001 -4.57042,-3.239705 -5.88053,-0.63619 -1.18315,2.351227 1.01018,5.078269 3.57516,4.445108 z m -11.30125,2.827817 c -0.56259,-0.202446 -0.85879,-0.618408 -0.85879,-1.206033 0,-0.606531 0.0238,-0.632744 1.77898,-1.95568 2.55695,-1.92731 2.60031,-1.955752 2.87046,-1.883007 0.4561,0.122816 0.456,0.446978 -3.1e-4,1.102836 -0.17382,0.24981 -0.45815,0.663886 -0.63185,0.92017 -0.98722,1.456598 -1.72916,2.4843 -1.96674,2.724232 -0.33413,0.337426 -0.77492,0.447463 -1.19171,0.297482 z m 2.9654,-5.638293 c -1.49942,-0.347288 -1.98448,-2.183253 -0.84845,-3.211308 1.18818,-1.075228 3.12684,-0.211478 3.12684,1.393126 0,1.168493 -1.14352,2.081037 -2.27839,1.818182 z m 0.68416,-1.236936 c 0.44447,-0.229159 0.52309,-0.764738 0.15917,-1.084261 -0.42752,-0.375368 -1.09629,-0.07738 -1.09123,0.48623 0.005,0.486031 0.51449,0.81333 0.93206,0.598031 z"
         id="path74" /></g></g></svg>
