<?xml version="1.0" encoding="UTF-8" standalone="no"?>
<!-- Created with Inkscape (http://www.inkscape.org/) -->

<svg
   width="1280"
   height="640"
   viewBox="0 0 338.66666 169.33333"
   version="1.1"
   id="svg1"
   inkscape:version="1.4.2 (7335b4f457, 2025-06-11)"
   sodipodi:docname="social.svg"
   xmlns:inkscape="http://www.inkscape.org/namespaces/inkscape"
   xmlns:sodipodi="http://sodipodi.sourceforge.net/DTD/sodipodi-0.dtd"
   xmlns:xlink="http://www.w3.org/1999/xlink"
   xmlns="http://www.w3.org/2000/svg"
   xmlns:svg="http://www.w3.org/2000/svg">
  <sodipodi:namedview
     id="namedview1"
     pagecolor="#505050"
     bordercolor="#ffffff"
     borderopacity="1"
     inkscape:showpageshadow="0"
     inkscape:pageopacity="0"
     inkscape:pagecheckerboard="1"
     inkscape:deskcolor="#505050"
     inkscape:document-units="mm"
     inkscape:zoom="1.72549"
     inkscape:cx="497.53983"
     inkscape:cy="397.858"
     inkscape:window-width="3774"
     inkscape:window-height="2075"
     inkscape:window-x="66"
     inkscape:window-y="46"
     inkscape:window-maximized="1"
     inkscape:current-layer="layer1" />
  <defs
     id="defs1">
    <linearGradient
       inkscape:collect="always"
       xlink:href="#a"
       id="linearGradient503"
       gradientUnits="userSpaceOnUse"
       gradientTransform="matrix(0.3885994,0.00297566,-0.00154596,0.20189056,-8.9356723,-352.57912)"
       x1="352.15787"
       y1="1902.979"
       x2="562.99939"
       y2="2219.3118" />
    <linearGradient
       id="a">
      <stop
         offset="0"
         stop-color="#4ed8ff"
         id="stop869" />
      <stop
         offset="1"
         stop-color="#ff14b3"
         id="stop871" />
    </linearGradient>
  </defs>
  <g
     inkscape:label="Layer 1"
     inkscape:groupmode="layer"
     id="layer1">
    <rect
       style="fill:#b3b3b3;stroke-width:0.250355;-inkscape-stroke:none;paint-order:markers fill stroke"
       id="rect3"
       width="338.73895"
       height="169.20047"
       x="-0.49628502"
       y="0.040662654"
       inkscape:export-filename="social.png"
       inkscape:export-xdpi="251.23711"
       inkscape:export-ydpi="251.23711" />
    <path
       style="fill:#ffffff;stroke-width:0.0342997"
       d="m 166.77234,110.6276 c 0.41491,-0.21239 8.76854,-5.09443 33.71603,-19.704695 3.08745,-1.80813 3.48035,-2.07589 3.87009,-2.637485 0.64345,-0.927078 0.60819,0.254099 0.64947,-21.775609 l 0.0376,-20.29756 -0.27804,-0.608854 c -0.56219,-1.230826 -0.89906,-1.467217 -8.03384,-5.638124 -1.8775,-1.097578 -5.27718,-3.089052 -7.55489,-4.425484 -23.53674,-13.81031 -22.75952,-13.378418 -23.93721,-13.301496 -0.9968,0.06511 -0.29629,-0.307022 -8.92404,4.738851 -3.9754,2.324941 -10.98496,6.419925 -15.57676,9.09995 -4.59176,2.680052 -9.50851,5.550237 -10.92613,6.378193 -2.77549,1.62104 -3.48014,2.181028 -3.86375,3.070641 l -0.23349,0.541765 -0.0161,20.374901 c -0.0215,22.906561 -0.0902,21.037092 0.83261,22.064269 0.30165,0.336062 0.94151,0.801292 1.74213,1.267092 0.6959,0.40482 2.6755,1.5629 4.39917,2.57349 24.23607,14.209865 31.23049,18.266645 31.84217,18.468515 0.43692,0.14428 1.83376,0.0274 2.2557,-0.18835 z"
       id="path507" />
    <g
       id="g3"
       transform="matrix(2.5048234,0,0,2.5048234,-159.04805,-139.45947)"
       style="stroke-width:0.186306">
      <g
         id="g2"
         style="stroke-width:0.186306" />
    </g>
    <path
       style="font-variation-settings:normal;baseline-shift:baseline;display:inline;overflow:visible;vector-effect:none;fill:url(#linearGradient503);fill-opacity:1;stroke:none;stroke-width:0.187855;stroke-linecap:butt;stroke-linejoin:miter;stroke-miterlimit:4;stroke-dasharray:none;stroke-dashoffset:0;stroke-opacity:1;-inkscape-stroke:none;paint-order:markers fill stroke;enable-background:accumulate;stop-color:#000000"
       d="m 165.3668,16.343344 c -1.7795,2.6e-5 -3.55851,0.459084 -5.14939,1.377638 l -34.56157,19.95457 c -3.18176,1.83704 -5.14966,5.246607 -5.1496,8.920584 l 5.9e-4,39.908228 c 5e-5,3.673981 1.96843,7.082831 5.15024,8.919771 l 34.56131,19.953665 c 3.18181,1.83693 7.11883,1.83701 10.30054,-3e-5 l 34.56082,-19.954585 c 3.18176,-1.83704 5.15046,-5.2466 5.15041,-8.920576 l -5.4e-4,-39.908228 c -1.1e-4,-3.673982 -1.96843,-7.08283 -5.15024,-8.919768 L 170.5172,17.72095 c -1.59093,-0.918469 -3.37086,-1.377633 -5.1504,-1.377606 z m 3.7e-4,7.266807 c 0.52173,-4.3e-5 1.04382,0.135691 1.51499,0.407717 l 34.56136,19.953663 c 0.94221,0.544004 1.51455,1.535219 1.51455,2.623221 l 0.001,39.908238 c 5e-5,1.088002 -0.57223,2.0789 -1.51445,2.622915 l -34.56163,19.955345 c -0.94227,0.54401 -2.08678,0.54368 -3.029,-3.2e-4 L 129.29212,89.127275 c -0.94227,-0.544005 -1.5145,-1.535231 -1.5145,-2.623227 l -5.4e-4,-39.908234 c -1.1e-4,-1.088002 0.57218,-2.078894 1.51439,-2.622914 L 163.8531,24.017546 c 0.47127,-0.271972 0.9924,-0.407395 1.51407,-0.407395 z"
       id="path491" />
    <g
       id="g55"
       transform="matrix(2.5048234,0,0,2.5048234,791.53892,453.36615)"
       style="stroke-width:0.186306" />
    <g
       id="g66"
       transform="matrix(0.4226457,0,0,0.4226457,52.555623,16.57787)"
       style="stroke-width:1.10415">
      <path
         style="fill:#deacff;fill-opacity:1;stroke:#deacff;stroke-width:1.10415;stroke-opacity:1"
         d="m 228.39646,149.21283 c -2.06167,-0.66589 -3.38256,-2.66216 -3.18208,-4.80906 0.18212,-1.9502 0.80893,-2.69926 4.08657,-4.88354 0.9026,-0.60151 3.89541,-2.6555 6.6507,-4.56441 7.42135,-5.14165 7.91882,-5.42348 8.21199,-4.65239 0.31328,0.82399 0.18925,1.0253 -4.28539,6.95554 -3.77482,5.00275 -4.56026,6.21589 -5.65296,8.73116 -1.1551,2.65892 -3.52227,3.96769 -5.82883,3.2227 z m 19.98686,-14.84692 c -0.96778,-0.42504 -0.94451,-0.47816 1.83777,-4.19554 3.8577,-5.15425 4.21837,-6.58836 2.1202,-8.43058 -1.75545,-1.5413 -2.01072,-1.40901 -16.24132,8.41677 -1.82464,1.25985 -2.01542,1.24088 -4.24216,-0.42192 -21.79483,-16.27505 -11.08095,-48.670027 16.09965,-48.679608 l 3.88677,-0.0014 2.45688,0.64463 c 5.29018,1.388028 9.5822,3.907309 13.32284,7.820081 1.99229,2.08398 1.99135,2.014388 0.0564,4.172501 -9.25647,10.324006 -11.75711,23.373896 -6.59131,34.397436 0.85472,1.82393 0.85791,1.75982 -0.13087,2.63018 -2.39148,2.10506 -10.63938,4.49742 -12.57485,3.64742 z m 0.99078,-16.62204 c 11.79972,-2.46126 10.52608,-20.517961 -1.44853,-20.536456 -13.31429,-0.02056 -14.59522,19.484156 -1.35008,20.557526 0.80759,0.0654 1.56168,0.13044 1.67577,0.14443 0.11409,0.014 0.61937,-0.0605 1.12284,-0.1655 z m -3.95182,-4.20361 c -4.52464,-1.41476 -5.8037,-7.74104 -2.17635,-10.76421 2.9054,-2.42147 6.31951,-2.27828 8.82424,0.37011 4.47782,4.73462 -0.39282,12.34995 -6.64789,10.3941 z m 2.76247,-4.09107 c 1.67169,-0.85886 1.91437,-2.50253 0.53022,-3.5913 -1.83291,-1.44176 -4.37451,1.3652 -2.6925,2.97361 0.77234,0.73855 1.51442,0.95053 2.16228,0.61769 z"
         id="path69" />
      <path
         style="fill:#b3b3b3;fill-opacity:1;stroke:#b3b3b3;stroke-width:1.10415;stroke-opacity:1"
         d="m 212.09297,163.43301 c -1.03845,-0.36829 -2.05073,-1.31907 -2.60404,-2.44583 l -0.48558,-0.98884 0.0567,-41.8044 c 0.0362,-26.678011 0.11826,-42.044468 0.2268,-42.467859 0.21844,-0.852017 1.40603,-2.146577 2.35793,-2.570304 0.76222,-0.339293 69.58534,-0.538775 70.96834,-0.205699 2.62076,0.631177 3.03931,1.546143 3.1933,6.980738 0.14777,5.215509 0.40839,4.809733 -3.76419,5.860878 -2.77403,0.698823 -4.24827,1.238347 -6.45981,2.364074 -2.54738,1.29668 -2.37912,1.339872 -4.8778,-1.252007 -8.22887,-8.535763 -18.65388,-11.588099 -30.52073,-8.936153 -22.86206,5.109102 -31.88729,33.786892 -15.8675,50.419202 2.50344,2.59916 2.39077,2.73499 -2.06764,2.4924 -8.06401,-0.43877 -8.32287,0.0261 -8.32049,14.94217 l 0.002,10.5493 0.40992,0.86373 c 0.48494,1.02184 1.66175,2.20874 2.56102,2.58301 0.55692,0.23179 2.10603,0.26708 11.66032,0.26567 l 11.01807,-0.002 0.90939,-0.52151 c 1.94383,-1.11477 2.37278,-2.2222 2.37278,-6.12594 0,-3.37678 -0.0641,-3.60069 -1.69914,-5.93459 -1.11642,-1.5936 -1.49666,-2.30457 -1.49666,-2.7984 0,-0.43459 2.75352,-4.25108 3.79455,-5.2594 l 0.71339,-0.69098 3.14433,-0.11372 c 5.74043,-0.20761 10.08085,-1.23254 14.42634,-3.40657 2.4256,-1.21352 2.26464,-1.26496 5.30156,1.69434 4.45379,4.33996 10.33303,7.80953 14.76973,8.71618 0.23753,0.0486 0.62621,0.12979 0.86373,0.18057 0.23753,0.0508 0.66507,0.13805 0.9501,0.19395 2.22595,0.43654 2.15932,0.20113 2.15932,7.6293 0,7.78927 -0.33177,8.86482 -3.01671,9.77967 -1.20892,0.41192 -69.51839,0.42028 -70.67904,0.009 z m 68.80595,-3.62252 c 1.90962,-1.51935 1.7854,-3.97296 -0.26705,-5.27458 -2.49726,-1.58372 -5.88048,1.04322 -4.8514,3.76692 0.75409,1.99585 3.49145,2.80215 5.11845,1.50766 z M 217.87344,82.172168 c 1.65901,-1.226452 1.83796,-3.383417 0.40582,-4.891143 -2.7397,-2.884276 -7.41225,0.908409 -4.99342,4.053124 1.11338,1.447491 3.23816,1.835625 4.5876,0.838019 z m 62.44197,0.155978 c 2.4899,-1.279215 2.50971,-4.652717 0.0344,-5.851015 -2.13314,-1.032633 -4.88696,0.761027 -4.70834,3.066707 0.16494,2.129123 2.84348,3.724744 4.67398,2.784308 z"
         id="path68" />
      <path
         style="fill:#65aef7;fill-opacity:1;stroke:#65aef7;stroke-width:1.10415;stroke-opacity:1"
         d="m 324.12058,161.76246 c -0.32283,-0.21736 -1.42786,-1.40283 -2.45561,-2.63437 -1.02776,-1.23154 -3.06261,-3.63841 -4.5219,-5.34859 -4.4393,-5.20256 -4.63562,-5.49727 -4.15281,-6.23412 0.0835,-0.12749 2.71892,-2.29656 3.77456,-1.27728 0.25326,0.24454 0.56728,0.56338 0.92662,0.93857 2.84346,2.96899 8.52415,9.46752 9.38632,10.61498 1.85747,2.47209 -0.49077,5.60141 -2.95718,3.9408 z m -104.97551,-5.64821 c -1.25845,-0.29815 -1.18429,0.19009 -1.31963,-8.68847 -0.14771,-9.68954 0.002,-11.54025 0.99728,-12.36664 0.1952,-0.16201 1.13699,-0.17926 4.02772,-0.0738 4.57411,0.16687 4.64443,0.21599 2.70397,1.88905 -3.42358,2.95183 -4.35838,4.65254 -4.36828,7.94733 -0.01,3.24872 1.79569,6.21611 4.65991,7.65894 1.03719,0.52248 1.56038,0.66532 3.50506,0.95694 1.60459,0.24063 4.08036,-0.62069 6.14467,-2.13772 1.68397,-1.23753 1.86493,-1.31299 2.36407,-0.98594 1.52101,0.99661 1.48841,5.09676 -0.0456,5.73801 -0.62366,0.26069 -17.59278,0.31732 -18.66914,0.0623 z m 90.09061,-12.26705 c -1.95917,-1.54108 -2.50241,-3.74729 -0.40791,-4.25689 0.523,-0.12725 1.89693,0.69582 2.72661,1.48345 0.39337,0.37344 0.6644,0.7389 0.6644,0.99135 0,0.0906 -0.0167,0.18334 -0.0477,0.27678 -0.14803,0.44596 -0.62192,0.90782 -1.16039,1.2295 -0.65129,0.38908 -1.39707,0.57308 -1.77499,0.27581 z m -24.39706,-1.61957 c -21.84917,-4.68826 -29.87924,-29.93148 -14.43573,-45.379928 19.08145,-19.08754 51.29296,-2.157091 45.74054,24.041328 -3.03036,14.29838 -17.65541,24.2674 -31.30481,21.3386 z m 9.02313,-4.07193 c 15.74085,-3.21035 23.62722,-20.75657 15.47839,-34.43753 -8.87687,-14.903249 -30.60241,-14.547236 -39.63363,0.64947 -9.84765,16.57048 5.22187,37.64953 24.15524,33.78806 z"
         id="path67"
         sodipodi:nodetypes="sssssssssscsscssssssssssssssssssssssss" />
      <path
         style="fill:#4d4d4d;fill-opacity:1;stroke-width:1.10415"
         d="m 211.81204,167.52427 c -3.54015,-0.95736 -5.87764,-3.37543 -6.6072,-6.83495 -0.38515,-1.82635 -0.38569,-83.749266 -5.6e-4,-85.382755 0.69183,-2.934398 2.77952,-5.103776 5.75137,-5.976454 0.81496,-0.239312 4.87258,-0.271206 36.84285,-0.289596 l 35.92702,-0.02066 1.07479,0.505385 c 3.96044,1.862273 4.96156,3.948064 4.96156,10.337139 v 4.219412 l 0.51436,0.312806 c 0.35276,0.214526 1.20759,0.381178 2.72075,0.530425 24.2396,2.390796 36.36194,30.853638 21.09766,49.536598 -1.57628,1.92932 -1.85667,1.39717 4.24911,8.06401 1.23101,1.34412 4.45702,4.79864 7.16894,7.67672 5.40797,5.73934 5.86511,6.36449 6.23121,8.52125 0.76714,4.51942 -3.24487,8.58007 -7.42038,7.51036 -2.57588,-0.65991 -8.66867,-8.8488 -10.00685,-10.59223 -1.95936,-2.55273 -6.67675,-8.11883 -8.81138,-10.52074 -2.13463,-2.40192 -2.70322,-1.25703 -6.15605,0.088 -2.2535,0.87783 -4.90681,1.35738 -6.39159,1.48469 -3.16556,0.27143 -2.89094,-0.34951 -3.02348,7.50954 -0.13756,8.15674 -0.19258,13.71039 -6.823,13.56868 l -35.06733,0.0337 c -33.45039,0.0321 -35.12103,0.0191 -36.2318,-0.28126 z m 70.95997,-4.0999 c 2.7318,-0.93082 3.04344,-1.98972 2.97974,-10.12438 -0.057,-7.27767 0.0459,-6.85191 -1.7415,-7.20444 -0.5895,-0.11626 -1.2273,-0.24627 -1.41732,-0.28891 -0.19002,-0.0426 -0.50855,-0.11177 -0.70784,-0.15363 -4.83663,-1.01607 -10.91677,-4.69793 -15.53023,-9.40442 -2.10776,-2.15025 -2.26293,-2.18877 -4.44071,-1.10222 -4.4802,2.23529 -8.86339,3.2839 -14.59725,3.49216 l -3.14537,0.11424 -0.71235,0.68992 c -1.04012,1.00736 -3.79351,4.82394 -3.79351,5.25833 0,0.50169 3.16763,3.24894 2.75891,7.15416 -0.24808,2.37032 0.9417,6.86841 -2.83,8.22953 h -11.02571 c -12.34908,0 -11.60608,0.0734 -13.06533,-1.29151 -1.66966,-1.56176 -1.59647,-0.92717 -1.5399,-13.3518 0.0553,-12.13444 -0.0202,-11.40856 1.33963,-12.88384 1.44001,-1.56223 2.87586,-1.90635 7.00148,-1.67803 4.39688,0.24334 4.51057,0.10173 2.00605,-2.49854 -4.53353,-4.70688 -7.71281,-12.00968 -8.08025,-18.56031 -1.62363,-28.945854 34.14549,-43.993049 54.47409,-22.915922 2.49871,2.590718 2.33059,2.547601 4.87781,1.25101 2.20689,-1.123363 3.68297,-1.664178 6.44605,-2.361751 4.19436,-1.058912 3.92827,-0.682944 3.8247,-5.403931 -0.12451,-5.6755 -0.54583,-6.694174 -3.05238,-7.38003 -1.13435,-0.310384 -70.3971,-0.252468 -71.13734,0.05948 -0.82575,0.34799 -2.16596,1.842455 -2.38638,2.661067 -0.12509,0.464522 -0.19677,13.813594 -0.22808,42.472587 l -0.0457,41.79515 0.48558,0.98884 c 0.5533,1.12676 1.56559,2.07754 2.60403,2.44583 1.16066,0.41163 69.47013,0.40328 70.67904,-0.009 z m -5.96827,-8.58002 c 2.42301,-2.48244 6.88652,1.52103 4.56381,4.05788 -3.17763,3.47058 -7.53786,-1.01089 -4.56381,-4.05788 z M 214.48385,82.417495 c -2.83309,-1.44352 -2.09398,-5.736631 1.04336,-6.060434 3.44149,-0.355192 5.10743,3.773834 2.34623,5.815107 -0.751,0.555196 -2.52889,0.683873 -3.38959,0.245327 z m 62.83873,-0.284174 c -2.78684,-1.897217 -1.92583,-5.477874 1.42775,-5.937535 2.72259,-0.373172 4.52693,3.11872 2.69162,5.209022 -1.05527,1.201886 -2.93556,1.534416 -4.11937,0.728513 z m 49.42595,79.665229 c 2.29599,-1.63489 1.79316,-2.60563 -5.1983,-10.03573 -5.81473,-6.17953 -5.62175,-6.56762 -7.29958,-5.25604 -1.79075,1.39985 -2.15529,1.35714 2.89242,7.27272 1.45929,1.71018 3.49414,4.11705 4.5219,5.34859 2.5875,3.10056 3.6763,3.67252 5.08356,2.67046 z m -88.93432,-5.74659 c 1.53404,-0.64125 1.56664,-4.7414 0.0456,-5.73802 -0.49913,-0.32704 -0.68009,-0.25158 -2.36407,0.98595 -2.0643,1.51703 -4.54008,2.37835 -6.14467,2.13772 -1.94467,-0.29162 -2.46786,-0.43446 -3.50505,-0.95694 -2.86422,-1.44283 -4.66966,-4.41022 -4.65991,-7.65894 0.01,-3.29479 0.9447,-4.9955 4.36828,-7.94733 1.94045,-1.67306 1.87014,-1.72218 -2.70397,-1.88906 -5.47932,-0.1999 -5.22721,-0.82405 -5.02501,12.44044 0.13534,8.87856 0.0612,8.39032 1.31964,8.68847 1.07636,0.25502 18.04548,0.1984 18.66914,-0.0623 z m -5.89182,-7.24267 c 1.11576,-0.65779 1.64586,-1.30672 2.3029,-2.81916 1.0927,-2.51527 1.87814,-3.72841 5.65296,-8.73116 4.47464,-5.93024 4.59867,-6.13155 4.28539,-6.95554 -0.29317,-0.77109 -0.79064,-0.48926 -8.21199,4.65239 -2.75529,1.90891 -5.7481,3.9629 -6.6507,4.56441 -3.27764,2.18428 -3.90445,2.93334 -4.08657,4.88354 -0.33675,3.60621 3.637,6.216 6.70801,4.40552 z m 79.50858,-5.69209 c 1.22464,-1.22463 1.54287,-1.02301 0.39418,-2.77662 -0.94763,-1.44666 -2.30857,-0.79902 -3.06743,-0.15594 -0.75885,0.6431 -1.63005,1.16257 -0.58609,2.55542 1.26027,1.68144 1.9707,1.6658 3.25936,0.37713 z m -16.77823,-0.97528 c 25.43603,-5.47491 30.22116,-39.11282 7.20361,-50.638984 -23.00104,-11.517895 -48.11949,13.265524 -36.55363,36.066064 5.52386,10.88953 17.90406,17.03658 29.35002,14.57292 z m -7.91392,-3.66397 c -16.23985,-2.24156 -25.24905,-20.28413 -17.03231,-34.11031 11.24223,-18.917131 39.53144,-13.599416 42.6934,8.02537 2.12797,14.5533 -11.1823,28.08341 -25.66109,26.08494 z m 7.10684,-4.22879 c 11.83769,-3.07183 18.1026,-16.11355 12.94042,-26.93818 -8.31015,-17.42564 -35.14747,-11.780952 -36.13754,7.6008 -0.62174,12.17109 11.58858,22.34975 23.19712,19.33738 z m -40.61946,-0.24048 c 3.4099,-0.82427 6.35362,-2.07692 7.73197,-3.29019 0.98878,-0.87036 0.98559,-0.80625 0.13087,-2.63018 -5.1658,-11.02354 -2.66516,-24.07343 6.59131,-34.397436 1.93495,-2.158113 1.93589,-2.088521 -0.0564,-4.172501 -3.74064,-3.912773 -8.03266,-6.432054 -13.32284,-7.820082 l -2.45688,-0.64463 -3.88677,0.0014 c -27.1806,0.0096 -37.89448,32.404559 -16.09965,48.679619 2.22674,1.66279 2.41752,1.68177 4.24216,0.42191 14.2306,-9.82578 14.48587,-9.95807 16.24132,-8.41676 2.09817,1.84221 1.7375,3.27633 -2.1202,8.43058 -2.78228,3.71737 -2.80555,3.7705 -1.83777,4.19553 0.51891,0.22789 3.25825,0.0258 4.84288,-0.35722 z m -6.65071,-16.24374 c -11.66825,-0.94559 -12.70544,-17.907076 -1.24111,-20.296224 10.35583,-2.158135 16.77317,10.219204 9.08489,17.522314 -1.70438,1.61899 -4.80419,3.08564 -6.16801,2.91834 -0.11409,-0.014 -0.86818,-0.079 -1.67577,-0.14443 z m 3.4372,-4.45106 c 4.04734,-1.98849 5.06002,-6.99299 2.05748,-10.16772 -5.64645,-5.970289 -14.73002,2.2318 -9.39173,8.48034 1.81156,2.12045 4.97256,2.8477 7.33425,1.68738 z m -3.0917,-3.86444 c -1.71548,-0.68204 -1.96359,-2.70094 -0.44569,-3.62655 2.00574,-1.2231 4.2573,1.40825 2.55967,2.99143 -0.87103,0.8123 -1.32516,0.94874 -2.11398,0.63512 z"
         id="path66"
         sodipodi:nodetypes="csssscsscsssssssssssscccccssscssscssscsscsssssssssssccssccsssssssssssssssssssssscsssssssssssssssssssssssssssscssccssssccssssscccssscsssssssss" />
    </g>
    <text
       xml:space="preserve"
       style="font-size:14.2942px;text-align:start;writing-mode:lr-tb;direction:ltr;text-anchor:start;fill:#4d4d4d;stroke-width:0.183461;-inkscape-stroke:none;paint-order:markers fill stroke"
       x="163.786"
       y="141.75613"
       id="text3"><tspan
         sodipodi:role="line"
         id="tspan3"
         style="font-style:normal;font-variant:normal;font-weight:bold;font-stretch:normal;font-family:'Roboto Mono';-inkscape-font-specification:'Roboto Mono Bold';text-align:center;text-anchor:middle;fill:#000000;stroke-width:0.183461"
         x="163.786"
         y="141.75613">@photostructure/fs-metadata</tspan></text>
  </g>
</svg>
